<svg width="32" height="31" viewBox="0 0 32 31" fill="none" xmlns="http://www.w3.org/2000/svg">
<path d="M30.282 29.145V20.2977C31.3179 19.4439 31.9786 18.1589 31.9786 16.7238V14.6286L16.9378 6.34664V5.15295H22.3521V0H15.0628V6.34682L0 14.6282V16.7238C0 18.1692 0.67 19.4625 1.71869 20.3162V29.145H0.000625V31H32V29.145L30.282 29.145ZM16.9378 1.85503H20.4771V3.29786H16.9378V1.85503ZM29.2571 15.2531H24.1628L19.5001 9.88046L29.2571 15.2531ZM16.9268 9.76298L21.6916 15.2531H16.9268V9.76298ZM22.5511 17.1081C22.3613 18.4684 21.1784 19.5193 19.7523 19.5193C18.3259 19.5193 17.1431 18.4684 16.9534 17.1081H22.5511ZM10.3048 15.2531L15.0518 9.76823V15.2531H10.3048ZM15.0251 17.1081C14.8354 18.4684 13.6525 19.5193 12.2263 19.5193C10.8 19.5193 9.61719 18.4684 9.42744 17.1081H15.0251ZM12.4776 9.89036L7.83625 15.2531H2.7235L12.4776 9.89036ZM1.90156 17.1081H7.49919C7.30944 18.4684 6.12656 19.5193 4.70038 19.5193C3.27419 19.5193 2.09131 18.4684 1.90156 17.1081ZM7.59869 29.145H3.59369V21.243C3.94887 21.3281 4.31919 21.3744 4.70044 21.3744C6.23787 21.3744 7.60525 20.6402 8.46338 19.5077C9.3215 20.6402 10.6888 21.3744 12.2264 21.3744C13.199 21.3744 14.1034 21.0806 14.854 20.578C14.6313 21.6978 14.2332 22.7819 13.6708 23.7836C12.7602 25.4056 11.4373 26.7812 9.84513 27.7617L7.59869 29.145ZM11.1362 29.145C12.8642 28.0137 14.3029 26.4783 15.31 24.6845C15.5706 24.2202 15.8008 23.7406 16.0004 23.2494C16.2 23.7405 16.4301 24.2201 16.6908 24.6845C17.6979 26.4782 19.1366 28.0137 20.8646 29.145H11.1362ZM28.407 29.145H24.4019L22.1555 27.7617C20.5634 26.7812 19.2404 25.4057 18.3298 23.7836C17.7701 22.7868 17.3733 21.7083 17.1501 20.5944C17.8957 21.0866 18.7905 21.3744 19.7522 21.3744C21.2896 21.3744 22.657 20.6402 23.5151 19.5077C24.3732 20.6402 25.7406 21.3744 27.2781 21.3744C27.6672 21.3744 28.0451 21.3265 28.407 21.2378V29.145ZM27.2781 19.5193C25.8518 19.5193 24.669 18.4684 24.4792 17.1081H30.0769C29.8872 18.4684 28.7044 19.5193 27.2781 19.5193Z" fill="#10375C"/>
</svg>
