<svg width="32" height="32" viewBox="0 0 32 32" fill="none" xmlns="http://www.w3.org/2000/svg">
<path d="M16 29C17.1046 29 18 28.1046 18 27C18 25.8954 17.1046 25 16 25C14.8954 25 14 25.8954 14 27C14 28.1046 14.8954 29 16 29Z" fill="#10375C"/>
<path d="M21.6298 19.7495C20.0035 18.0535 17.6724 17 15.546 17C15.5458 17 15.5454 17 15.5451 17H15.455C15.4547 17 15.4545 17 15.4541 17C13.3277 17 10.9964 18.0535 9.3702 19.7495C8.87983 20.2609 8.87614 21.094 9.36202 21.6102C9.60645 21.8699 9.92821 22 10.25 22C10.568 22 10.886 21.8731 11.1297 21.6189C12.2874 20.4116 13.9847 19.6316 15.4542 19.6316C15.4544 19.6316 15.4547 19.6316 15.4549 19.6316H15.5453C15.5455 19.6316 15.5456 19.6316 15.5459 19.6316C17.0152 19.6316 18.7126 20.4116 19.8702 21.6189C20.3606 22.1303 21.1521 22.1266 21.6379 21.6102C22.1239 21.0941 22.1202 20.2609 21.6298 19.7495Z" fill="#10375C"/>
<path d="M31.6644 9.88305C27.5563 5.44454 21.9934 3.00006 15.9998 3C10.0067 3.00006 4.44372 5.44454 0.335543 9.88305C-0.135081 10.3916 -0.107269 11.1881 0.397731 11.6621C0.902792 12.136 1.69373 12.1081 2.16442 11.5995C5.79441 7.67748 10.7079 5.51754 16.0002 5.51748C21.2921 5.51754 26.2056 7.67748 29.8356 11.5995C30.0817 11.8654 30.4156 12 30.7502 12C31.0554 12 31.3614 11.8881 31.6022 11.6621C32.1072 11.188 32.1351 10.3916 31.6644 9.88305Z" fill="#10375C"/>
<path d="M27.6352 14.8307C24.582 11.7154 20.6274 9.99987 16.5 10C12.3716 10.0001 8.417 11.7157 5.36467 14.8308C4.87576 15.3298 4.87884 16.1356 5.37158 16.6307C5.86432 17.1258 6.66008 17.1227 7.14899 16.6237C9.7258 13.9939 13.0467 12.5455 16.5 12.5455C19.9524 12.5453 23.2733 13.9938 25.851 16.6238C26.0967 16.8745 26.4199 17 26.7431 17C27.0631 17 27.3834 16.8769 27.6286 16.6306C28.1212 16.1354 28.1242 15.3296 27.6352 14.8307Z" fill="#10375C"/>
</svg>
